<?xml version="1.0" standalone="no"?>
<!DOCTYPE svg PUBLIC "-//W3C//DTD SVG 20010904//EN"
 "http://www.w3.org/TR/2001/REC-SVG-20010904/DTD/svg10.dtd">
<svg version="1.0" xmlns="http://www.w3.org/2000/svg"
 width="549.000000pt" height="549.000000pt" viewBox="0 0 549.000000 549.000000"
 preserveAspectRatio="xMidYMid meet">

<g transform="translate(0.000000,549.000000) scale(0.100000,-0.100000)"
fill="#000000" stroke="none">
<path d="M2314 5186 c-33 -33 -43 -68 -26 -92 4 -6 54 -37 112 -69 139 -76
259 -159 364 -251 91 -80 107 -105 83 -132 -9 -9 -32 -54 -53 -99 -20 -46 -41
-83 -46 -83 -5 0 -61 22 -126 50 -64 27 -155 61 -201 75 -48 15 -111 45 -150
70 -87 57 -115 68 -145 54 -47 -22 -60 -93 -23 -126 29 -26 40 -30 139 -43 75
-10 105 -22 304 -120 372 -183 404 -238 322 -565 -54 -214 -70 -464 -41 -647
7 -49 -3 -49 -108 2 -65 31 -95 40 -136 40 -64 0 -78 -19 -70 -89 l6 -47 -105
-48 c-301 -140 -489 -340 -638 -677 -59 -135 -70 -197 -62 -379 l6 -144 94
-191 c88 -179 98 -195 159 -251 65 -60 251 -179 314 -201 58 -21 242 -36 350
-29 87 6 210 29 263 50 12 5 19 -10 32 -66 20 -90 135 -392 195 -514 26 -54
73 -126 114 -175 38 -46 85 -112 105 -146 62 -111 112 -132 145 -58 37 84 45
184 24 335 -31 229 -31 374 1 615 25 192 28 238 29 550 l0 340 67 200 c79 238
85 274 64 377 -13 62 -16 145 -16 420 0 723 -34 968 -189 1388 -50 134 -51
135 -126 208 -97 94 -165 127 -239 118 l-52 -6 -22 46 c-19 39 -26 45 -50 42
-24 -3 -28 -8 -33 -45 -3 -24 -8 -45 -11 -48 -3 -4 -62 30 -130 74 -68 43
-154 95 -189 115 -43 24 -93 65 -147 121 -53 55 -88 85 -102 85 -12 0 -37 -15
-56 -34z"/>
</g>
</svg>
